<svg id="Layer_1" data-name="Layer 1" xmlns="http://www.w3.org/2000/svg" viewBox="0 0 483.63 483.27"><defs><style>.cls-1{fill:#32369b;}.cls-2{fill:#0174cf;}</style></defs><circle class="cls-1" cx="241.62" cy="241.65" r="60.41"/><path class="cls-2" d="M403.92,198.55C472.43,216.17,522,258.82,522.84,300.82c1.22,59.4-95.34,97.79-150.84,107.67C301.18,421.11,242.83,397,217.16,384.35c-12.52-25.82-36-83.8-23.18-153.89,10.45-57.25,50.69-153.09,109.83-151,41.68,1.47,83,51.26,100.11,119.08,1.43-9.11,9.61-66.91-28.71-106.36C345.82,61.93,306,59.91,294.39,59.33,201.07,54.7,59.85,156,60,300.82c.15,128.75,111.91,241.57,241.62,241.63,148.65.06,249-148,241.63-241.63-.93-11.63-4-51-34.88-78.71C468.74,186.49,412.79,196.78,403.92,198.55Z" transform="translate(-60.03 -59.18)"/></svg>